<svg width="12" height="24" viewBox="0 0 12 24" fill="none" xmlns="http://www.w3.org/2000/svg">
<path d="M1.16667 5.83333C0.836111 5.83333 0.559028 5.72153 0.335417 5.49792C0.111806 5.27431 0 4.99722 0 4.66667C0 4.33611 0.111806 4.05903 0.335417 3.83542C0.559028 3.61181 0.836111 3.5 1.16667 3.5H4.66667V1.16667C4.66667 0.836111 4.77847 0.559028 5.00208 0.335417C5.22569 0.111806 5.50278 0 5.83333 0C6.16389 0 6.44097 0.111806 6.66458 0.335417C6.88819 0.559028 7 0.836111 7 1.16667V3.5H10.5C10.8306 3.5 11.1076 3.61181 11.3313 3.83542C11.5549 4.05903 11.6667 4.33611 11.6667 4.66667C11.6667 4.99722 11.5549 5.27431 11.3313 5.49792C11.1076 5.72153 10.8306 5.83333 10.5 5.83333H1.16667ZM2.33333 23.3333C1.69167 23.3333 1.14236 23.1049 0.685417 22.6479C0.228472 22.191 0 21.6417 0 21V18.6667H4.66667C4.99722 18.6667 5.27431 18.5549 5.49792 18.3312C5.72153 18.1076 5.83333 17.8306 5.83333 17.5C5.83333 17.1694 5.72153 16.8924 5.49792 16.6688C5.27431 16.4451 4.99722 16.3333 4.66667 16.3333H0V14H4.66667C4.99722 14 5.27431 13.8882 5.49792 13.6646C5.72153 13.441 5.83333 13.1639 5.83333 12.8333C5.83333 12.5028 5.72153 12.2257 5.49792 12.0021C5.27431 11.7785 4.99722 11.6667 4.66667 11.6667H0V10.5C0 9.52778 0.340278 8.70139 1.02083 8.02083C1.70139 7.34028 2.52778 7 3.5 7H8.16667C9.13889 7 9.96528 7.34028 10.6458 8.02083C11.3264 8.70139 11.6667 9.52778 11.6667 10.5V21C11.6667 21.6417 11.4382 22.191 10.9812 22.6479C10.5243 23.1049 9.975 23.3333 9.33333 23.3333H2.33333Z" fill="#00685F"/>
</svg>
