<svg width="21" height="21" viewBox="0 0 21 21" fill="none" xmlns="http://www.w3.org/2000/svg">
<path d="M13.125 21C12.8722 21 12.6243 20.9757 12.3813 20.9271C12.1382 20.8785 11.9 20.8056 11.6667 20.7083V0.291667C11.9 0.194444 12.1382 0.121528 12.3813 0.0729167C12.6243 0.0243056 12.8722 0 13.125 0C14.1361 0 15.0062 0.340278 15.7354 1.02083C16.4646 1.70139 16.8583 2.5375 16.9167 3.52917C18.0639 3.68472 19.0312 4.2 19.8188 5.075C20.6063 5.95 21 6.98056 21 8.16667C21 8.59444 20.9465 9.00278 20.8396 9.39167C20.7326 9.78056 20.5722 10.15 20.3583 10.5C20.5722 10.85 20.7326 11.2243 20.8396 11.6229C20.9465 12.0215 21 12.425 21 12.8333C21 14.0389 20.6063 15.0743 19.8188 15.9396C19.0312 16.8049 18.0542 17.3153 16.8875 17.4708C16.7903 18.4431 16.3868 19.2743 15.6771 19.9646C14.9674 20.6549 14.1167 21 13.125 21ZM7.875 21C6.88333 21 6.02778 20.6549 5.30833 19.9646C4.58889 19.2743 4.18056 18.4431 4.08333 17.4708C2.91667 17.3153 1.94444 16.8 1.16667 15.925C0.388889 15.05 0 14.0194 0 12.8333C0 12.425 0.0534722 12.0215 0.160417 11.6229C0.267361 11.2243 0.427778 10.85 0.641667 10.5C0.427778 10.15 0.267361 9.78056 0.160417 9.39167C0.0534722 9.00278 0 8.59444 0 8.16667C0 6.98056 0.388889 5.95486 1.16667 5.08958C1.94444 4.22431 2.90694 3.71389 4.05417 3.55833C4.1125 2.56667 4.51111 1.72569 5.25 1.03542C5.98889 0.345139 6.86389 0 7.875 0C8.12778 0 8.37569 0.0291667 8.61875 0.0875C8.8618 0.145833 9.1 0.223611 9.33333 0.320833V20.7083C9.1 20.8056 8.8618 20.8785 8.61875 20.9271C8.37569 20.9757 8.12778 21 7.875 21Z" fill="#00685F"/>
</svg>
