<svg width="19" height="24" viewBox="0 0 19 24" fill="none" xmlns="http://www.w3.org/2000/svg">
<path d="M9.33333 23.3149C8.43889 23.3149 7.31597 23.1788 5.96458 22.9066C4.61319 22.6344 3.63611 22.3524 3.03333 22.0607C2.81944 21.9635 2.64931 21.8177 2.52292 21.6232C2.39653 21.4288 2.33333 21.2149 2.33333 20.9816V19.8149H1.16667C0.836111 19.8149 0.559028 19.7031 0.335417 19.4795C0.111806 19.2559 0 18.9788 0 18.6482V16.8982C0 16.5677 0.111806 16.2906 0.335417 16.067C0.559028 15.8434 0.836111 15.7316 1.16667 15.7316H2.33333V13.3982H1.16667C0.836111 13.3982 0.559028 13.2864 0.335417 13.0628C0.111806 12.8392 0 12.5621 0 12.2316V10.4816C0 10.151 0.111806 9.87394 0.335417 9.65033C0.559028 9.42672 0.836111 9.31491 1.16667 9.31491H2.33333V6.98158H1.16667C0.836111 6.98158 0.559028 6.86977 0.335417 6.64616C0.111806 6.42255 0 6.14547 0 5.81491V4.06491C0 3.73436 0.111806 3.45727 0.335417 3.23366C0.559028 3.01005 0.836111 2.89825 1.16667 2.89825H2.33333V1.14825C2.33333 0.720468 2.50833 0.399634 2.85833 0.185746C3.20833 -0.0281433 3.57778 -0.0573099 3.96667 0.0982456C3.98611 0.0982456 4.52083 0.273246 5.57083 0.623246C6.62083 0.973246 7.875 1.14825 9.33333 1.14825C10.7917 1.14825 12.0458 0.973246 13.0958 0.623246C14.1458 0.273246 14.6806 0.0982456 14.7 0.0982456C15.0889 -0.0573099 15.4583 -0.0232822 15.8083 0.200329C16.1583 0.42394 16.3333 0.739912 16.3333 1.14825V2.89825H17.5C17.8306 2.89825 18.1076 3.01005 18.3312 3.23366C18.5549 3.45727 18.6667 3.73436 18.6667 4.06491V5.81491C18.6667 6.14547 18.5549 6.42255 18.3312 6.64616C18.1076 6.86977 17.8306 6.98158 17.5 6.98158H16.3333V9.31491H17.5C17.8306 9.31491 18.1076 9.42672 18.3312 9.65033C18.5549 9.87394 18.6667 10.151 18.6667 10.4816V12.2316C18.6667 12.5621 18.5549 12.8392 18.3312 13.0628C18.1076 13.2864 17.8306 13.3982 17.5 13.3982H16.3333V15.7316H17.5C17.8306 15.7316 18.1076 15.8434 18.3312 16.067C18.5549 16.2906 18.6667 16.5677 18.6667 16.8982V18.6482C18.6667 18.9788 18.5549 19.2559 18.3312 19.4795C18.1076 19.7031 17.8306 19.8149 17.5 19.8149H16.3333V20.9816C16.3333 21.2149 16.2701 21.4288 16.1437 21.6232C16.0174 21.8177 15.8472 21.9635 15.6333 22.0607C15.0306 22.3524 14.0535 22.6344 12.7021 22.9066C11.3507 23.1788 10.2278 23.3149 9.33333 23.3149ZM9.33333 7.73991C10.0722 7.73991 10.8549 7.67186 11.6812 7.53575C12.5076 7.39963 13.2806 7.20519 14 6.95241V2.78158C13.2611 2.99547 12.4882 3.16561 11.6812 3.292C10.8743 3.41838 10.0917 3.48158 9.33333 3.48158C8.59444 3.48158 7.82153 3.41838 7.01458 3.292C6.20764 3.16561 5.425 2.99547 4.66667 2.78158V6.95241C5.36667 7.20519 6.13472 7.39963 6.97083 7.53575C7.80694 7.67186 8.59444 7.73991 9.33333 7.73991ZM9.33333 14.3899C10.0528 14.3899 10.8257 14.3219 11.6521 14.1857C12.4785 14.0496 13.2611 13.8455 14 13.5732V9.37325C13.1444 9.60658 12.3326 9.78158 11.5646 9.89825C10.7965 10.0149 10.0528 10.0732 9.33333 10.0732C8.575 10.0732 7.79722 10.0149 7 9.89825C6.20278 9.78158 5.425 9.60658 4.66667 9.37325V13.5732C5.40556 13.8455 6.18819 14.0496 7.01458 14.1857C7.84097 14.3219 8.61389 14.3899 9.33333 14.3899ZM9.33333 20.9816C10.0722 20.9816 10.8549 20.9135 11.6812 20.7774C12.5076 20.6413 13.2806 20.4469 14 20.1941V16.0232C13.2611 16.2371 12.4882 16.4073 11.6812 16.5337C10.8743 16.6601 10.0917 16.7232 9.33333 16.7232C8.59444 16.7232 7.82153 16.6601 7.01458 16.5337C6.20764 16.4073 5.425 16.2371 4.66667 16.0232V20.1941C5.36667 20.4469 6.13472 20.6413 6.97083 20.7774C7.80694 20.9135 8.59444 20.9816 9.33333 20.9816Z" fill="#00685F"/>
</svg>
